<?xml version="1.0" encoding="UTF-8" standalone="no"?><!-- Generator: Gravit.io --><svg xmlns="http://www.w3.org/2000/svg" xmlns:xlink="http://www.w3.org/1999/xlink" style="isolation:isolate" viewBox="0 0 512 512" width="512pt" height="512pt"><defs><clipPath id="_clipPath_3shSUGajJopeRoxZGrdvHfWUIZe0dGuK"><rect width="512" height="512"/></clipPath></defs><g clip-path="url(#_clipPath_3shSUGajJopeRoxZGrdvHfWUIZe0dGuK)"><rect x="2.25" y="222.882" width="404.796" height="15.352" transform="matrix(0.682,-0.732,0.732,0.682,-103.546,223.175)" fill="rgb(83,59,77)"/><rect x="104.198" y="182.689" width="242.611" height="15.822" transform="matrix(-0.742,-0.671,0.671,-0.742,264.977,483.213)" fill="rgb(83,59,77)"/><rect x="49.381" y="310.832" width="274.647" height="15.454" transform="matrix(-0.865,0.502,-0.502,-0.865,508.038,500.446)" fill="rgb(83,59,77)"/><rect x="48.089" y="389.509" width="274.647" height="15.105" transform="matrix(-0.993,-0.118,0.118,-0.993,322.794,813.189)" fill="rgb(83,59,77)"/><rect x="207.314" y="321.786" width="181.847" height="17.704" transform="matrix(-0.014,-1,1,-0.014,-28.165,633.507)" fill="rgb(83,59,77)"/><rect x="276.798" y="338.554" width="202.879" height="16.46" transform="matrix(0.732,-0.681,0.693,0.721,-139.058,354.17)" fill="rgb(83,59,77)"/><rect x="281.273" y="258.109" width="207.518" height="15.805" transform="matrix(0.989,0.147,-0.147,0.989,43.18,-53.596)" fill="rgb(83,59,77)"/><rect x="301.533" y="179.727" width="207.518" height="17.408" transform="matrix(0.567,0.824,-0.824,0.567,330.89,-252.287)" fill="rgb(83,59,77)"/><rect x="128.608" y="90.561" width="242.611" height="17.907" transform="matrix(-0.994,0.106,-0.106,-0.994,508.972,171.965)" fill="rgb(83,59,77)"/><circle vector-effect="non-scaling-stroke" cx="149.15060240963874" cy="117.9277108433734" r="51.566265060240966" fill="rgb(114,221,247)"/><circle vector-effect="non-scaling-stroke" cx="347.6807228915665" cy="89.56626506024097" r="51.566265060240994" fill="rgb(34,116,165)"/><circle vector-effect="non-scaling-stroke" cx="62.77710843373509" cy="382.20481927710824" r="51.566265060240966" fill="rgb(164,176,245)"/><circle vector-effect="non-scaling-stroke" cx="296.1144578313252" cy="414.43373493975906" r="51.56626506024098" fill="rgb(244,127,56)"/><circle vector-effect="non-scaling-stroke" cx="458.54819277108453" cy="279.0722891566265" r="51.566265060240994" fill="rgb(255,191,0)"/><circle vector-effect="non-scaling-stroke" cx="296.1144578313252" cy="242.9759036144579" r="51.56626506024098" fill="rgb(232,63,111)"/></g></svg>